<mxfile host="app.diagrams.net" modified="2023-03-06T10:22:28.016Z" agent="5.0 (Macintosh; Intel Mac OS X 10_15_7) AppleWebKit/537.36 (KHTML, like Gecko) Chrome/110.0.0.0 Safari/537.36" etag="ddHBgduhyOL_qCCPTHLM" version="21.0.2" type="github">
  <diagram name="第 1 页" id="B5FwRz8VsBiWcjd7EB0q">
    <mxGraphModel dx="1122" dy="638" grid="1" gridSize="10" guides="1" tooltips="1" connect="1" arrows="1" fold="1" page="1" pageScale="1" pageWidth="827" pageHeight="1169" math="0" shadow="0">
      <root>
        <mxCell id="0" />
        <mxCell id="1" parent="0" />
        <mxCell id="hE6naJyZ3YEYH1XUzzc--43" value="Object" style="html=1;whiteSpace=wrap;" vertex="1" parent="1">
          <mxGeometry x="913.25" y="170" width="250" height="330" as="geometry" />
        </mxCell>
        <mxCell id="hE6naJyZ3YEYH1XUzzc--5" style="edgeStyle=orthogonalEdgeStyle;rounded=0;orthogonalLoop=1;jettySize=auto;html=1;exitX=0.5;exitY=1;exitDx=0;exitDy=0;" edge="1" parent="1" source="hE6naJyZ3YEYH1XUzzc--1" target="hE6naJyZ3YEYH1XUzzc--4">
          <mxGeometry relative="1" as="geometry" />
        </mxCell>
        <mxCell id="hE6naJyZ3YEYH1XUzzc--1" value="过滤器" style="rounded=0;whiteSpace=wrap;html=1;" vertex="1" parent="1">
          <mxGeometry x="983.25" y="220" width="120" height="60" as="geometry" />
        </mxCell>
        <mxCell id="hE6naJyZ3YEYH1XUzzc--7" style="edgeStyle=orthogonalEdgeStyle;rounded=0;orthogonalLoop=1;jettySize=auto;html=1;" edge="1" parent="1" source="hE6naJyZ3YEYH1XUzzc--4" target="hE6naJyZ3YEYH1XUzzc--6">
          <mxGeometry relative="1" as="geometry" />
        </mxCell>
        <mxCell id="hE6naJyZ3YEYH1XUzzc--4" value="存储队列" style="rounded=0;whiteSpace=wrap;html=1;" vertex="1" parent="1">
          <mxGeometry x="983.25" y="310" width="120" height="60" as="geometry" />
        </mxCell>
        <mxCell id="hE6naJyZ3YEYH1XUzzc--6" value="前端" style="rounded=0;whiteSpace=wrap;html=1;" vertex="1" parent="1">
          <mxGeometry x="983.25" y="400" width="120" height="60" as="geometry" />
        </mxCell>
        <mxCell id="hE6naJyZ3YEYH1XUzzc--15" style="rounded=0;orthogonalLoop=1;jettySize=auto;html=1;" edge="1" parent="1" target="hE6naJyZ3YEYH1XUzzc--10">
          <mxGeometry relative="1" as="geometry">
            <mxPoint x="120" y="139" as="sourcePoint" />
          </mxGeometry>
        </mxCell>
        <mxCell id="hE6naJyZ3YEYH1XUzzc--16" style="rounded=0;orthogonalLoop=1;jettySize=auto;html=1;entryX=0;entryY=0.5;entryDx=0;entryDy=0;" edge="1" parent="1" source="hE6naJyZ3YEYH1XUzzc--8" target="hE6naJyZ3YEYH1XUzzc--11">
          <mxGeometry relative="1" as="geometry" />
        </mxCell>
        <mxCell id="hE6naJyZ3YEYH1XUzzc--17" style="rounded=0;orthogonalLoop=1;jettySize=auto;html=1;entryX=0;entryY=0.5;entryDx=0;entryDy=0;" edge="1" parent="1" source="hE6naJyZ3YEYH1XUzzc--8" target="hE6naJyZ3YEYH1XUzzc--12">
          <mxGeometry relative="1" as="geometry" />
        </mxCell>
        <mxCell id="hE6naJyZ3YEYH1XUzzc--8" value="买家" style="shape=umlActor;verticalLabelPosition=bottom;verticalAlign=top;html=1;outlineConnect=0;" vertex="1" parent="1">
          <mxGeometry x="80" y="110" width="30" height="60" as="geometry" />
        </mxCell>
        <mxCell id="hE6naJyZ3YEYH1XUzzc--9" value="关注店铺" style="ellipse;whiteSpace=wrap;html=1;" vertex="1" parent="1">
          <mxGeometry x="215" y="30" width="90" height="60" as="geometry" />
        </mxCell>
        <mxCell id="hE6naJyZ3YEYH1XUzzc--10" value="浏览商品" style="ellipse;whiteSpace=wrap;html=1;" vertex="1" parent="1">
          <mxGeometry x="210" y="100" width="100" height="60" as="geometry" />
        </mxCell>
        <mxCell id="hE6naJyZ3YEYH1XUzzc--11" value="私聊商家" style="ellipse;whiteSpace=wrap;html=1;" vertex="1" parent="1">
          <mxGeometry x="210" y="180" width="100" height="60" as="geometry" />
        </mxCell>
        <mxCell id="hE6naJyZ3YEYH1XUzzc--12" value="购买商品" style="ellipse;whiteSpace=wrap;html=1;" vertex="1" parent="1">
          <mxGeometry x="207.5" y="260" width="105" height="65" as="geometry" />
        </mxCell>
        <mxCell id="hE6naJyZ3YEYH1XUzzc--14" value="" style="endArrow=classic;html=1;rounded=0;entryX=0;entryY=0.5;entryDx=0;entryDy=0;" edge="1" parent="1" target="hE6naJyZ3YEYH1XUzzc--9">
          <mxGeometry width="50" height="50" relative="1" as="geometry">
            <mxPoint x="120" y="130" as="sourcePoint" />
            <mxPoint x="440" y="210" as="targetPoint" />
          </mxGeometry>
        </mxCell>
        <mxCell id="hE6naJyZ3YEYH1XUzzc--24" style="rounded=0;orthogonalLoop=1;jettySize=auto;html=1;entryX=0;entryY=0.5;entryDx=0;entryDy=0;" edge="1" parent="1" source="hE6naJyZ3YEYH1XUzzc--18" target="hE6naJyZ3YEYH1XUzzc--21">
          <mxGeometry relative="1" as="geometry" />
        </mxCell>
        <mxCell id="hE6naJyZ3YEYH1XUzzc--25" style="edgeStyle=orthogonalEdgeStyle;rounded=0;orthogonalLoop=1;jettySize=auto;html=1;entryX=0;entryY=0.5;entryDx=0;entryDy=0;" edge="1" parent="1" source="hE6naJyZ3YEYH1XUzzc--18" target="hE6naJyZ3YEYH1XUzzc--22">
          <mxGeometry relative="1" as="geometry" />
        </mxCell>
        <mxCell id="hE6naJyZ3YEYH1XUzzc--26" style="rounded=0;orthogonalLoop=1;jettySize=auto;html=1;entryX=0;entryY=0.5;entryDx=0;entryDy=0;" edge="1" parent="1" source="hE6naJyZ3YEYH1XUzzc--18" target="hE6naJyZ3YEYH1XUzzc--23">
          <mxGeometry relative="1" as="geometry" />
        </mxCell>
        <mxCell id="hE6naJyZ3YEYH1XUzzc--18" value="卖家" style="shape=umlActor;verticalLabelPosition=bottom;verticalAlign=top;html=1;outlineConnect=0;" vertex="1" parent="1">
          <mxGeometry x="80" y="440" width="30" height="60" as="geometry" />
        </mxCell>
        <mxCell id="hE6naJyZ3YEYH1XUzzc--21" value="发布商品" style="ellipse;whiteSpace=wrap;html=1;" vertex="1" parent="1">
          <mxGeometry x="215" y="350" width="90" height="60" as="geometry" />
        </mxCell>
        <mxCell id="hE6naJyZ3YEYH1XUzzc--22" value="管理商品库存" style="ellipse;whiteSpace=wrap;html=1;" vertex="1" parent="1">
          <mxGeometry x="210" y="440" width="100" height="60" as="geometry" />
        </mxCell>
        <mxCell id="hE6naJyZ3YEYH1XUzzc--23" value="与买家沟通" style="ellipse;whiteSpace=wrap;html=1;" vertex="1" parent="1">
          <mxGeometry x="210" y="525" width="100" height="60" as="geometry" />
        </mxCell>
        <mxCell id="hE6naJyZ3YEYH1XUzzc--30" style="rounded=0;orthogonalLoop=1;jettySize=auto;html=1;" edge="1" parent="1" source="hE6naJyZ3YEYH1XUzzc--27" target="hE6naJyZ3YEYH1XUzzc--28">
          <mxGeometry relative="1" as="geometry" />
        </mxCell>
        <mxCell id="hE6naJyZ3YEYH1XUzzc--32" style="rounded=0;orthogonalLoop=1;jettySize=auto;html=1;entryX=0;entryY=0.5;entryDx=0;entryDy=0;" edge="1" parent="1" source="hE6naJyZ3YEYH1XUzzc--27" target="hE6naJyZ3YEYH1XUzzc--29">
          <mxGeometry relative="1" as="geometry" />
        </mxCell>
        <mxCell id="hE6naJyZ3YEYH1XUzzc--27" value="监管者" style="shape=umlActor;verticalLabelPosition=bottom;verticalAlign=top;html=1;outlineConnect=0;" vertex="1" parent="1">
          <mxGeometry x="450" y="120" width="30" height="60" as="geometry" />
        </mxCell>
        <mxCell id="hE6naJyZ3YEYH1XUzzc--28" value="授权卖家" style="ellipse;whiteSpace=wrap;html=1;" vertex="1" parent="1">
          <mxGeometry x="575" y="70" width="110" height="70" as="geometry" />
        </mxCell>
        <mxCell id="hE6naJyZ3YEYH1XUzzc--29" value="处理商品纠纷" style="ellipse;whiteSpace=wrap;html=1;" vertex="1" parent="1">
          <mxGeometry x="575" y="170" width="110" height="70" as="geometry" />
        </mxCell>
        <mxCell id="hE6naJyZ3YEYH1XUzzc--37" value="Nostr协议信息" style="rounded=0;orthogonalLoop=1;jettySize=auto;html=1;entryX=1;entryY=0.5;entryDx=0;entryDy=0;" edge="1" parent="1" source="hE6naJyZ3YEYH1XUzzc--36" target="hE6naJyZ3YEYH1XUzzc--1">
          <mxGeometry x="-0.3499" y="-19" relative="1" as="geometry">
            <mxPoint as="offset" />
          </mxGeometry>
        </mxCell>
        <mxCell id="hE6naJyZ3YEYH1XUzzc--36" value="中继器" style="rounded=1;whiteSpace=wrap;html=1;" vertex="1" parent="1">
          <mxGeometry x="1230" y="280" width="120" height="60" as="geometry" />
        </mxCell>
        <mxCell id="hE6naJyZ3YEYH1XUzzc--39" value="发布商品信息" style="edgeStyle=orthogonalEdgeStyle;rounded=0;orthogonalLoop=1;jettySize=auto;html=1;entryX=1;entryY=0.5;entryDx=0;entryDy=0;" edge="1" parent="1" source="hE6naJyZ3YEYH1XUzzc--38" target="hE6naJyZ3YEYH1XUzzc--36">
          <mxGeometry relative="1" as="geometry" />
        </mxCell>
        <mxCell id="hE6naJyZ3YEYH1XUzzc--38" value="商家" style="rounded=0;whiteSpace=wrap;html=1;" vertex="1" parent="1">
          <mxGeometry x="1500" y="280" width="120" height="60" as="geometry" />
        </mxCell>
        <mxCell id="hE6naJyZ3YEYH1XUzzc--41" style="edgeStyle=orthogonalEdgeStyle;rounded=0;orthogonalLoop=1;jettySize=auto;html=1;entryX=0.5;entryY=0;entryDx=0;entryDy=0;" edge="1" parent="1" source="hE6naJyZ3YEYH1XUzzc--40" target="hE6naJyZ3YEYH1XUzzc--38">
          <mxGeometry relative="1" as="geometry" />
        </mxCell>
        <mxCell id="hE6naJyZ3YEYH1XUzzc--42" value="对商家公钥签名" style="edgeLabel;html=1;align=center;verticalAlign=middle;resizable=0;points=[];" vertex="1" connectable="0" parent="hE6naJyZ3YEYH1XUzzc--41">
          <mxGeometry x="0.1239" y="2" relative="1" as="geometry">
            <mxPoint x="-52" y="35" as="offset" />
          </mxGeometry>
        </mxCell>
        <mxCell id="hE6naJyZ3YEYH1XUzzc--40" value="监管者" style="rounded=0;whiteSpace=wrap;html=1;" vertex="1" parent="1">
          <mxGeometry x="1360" y="160" width="120" height="60" as="geometry" />
        </mxCell>
        <mxCell id="hE6naJyZ3YEYH1XUzzc--45" value="买家" style="text;html=1;strokeColor=none;fillColor=none;align=center;verticalAlign=middle;whiteSpace=wrap;rounded=0;" vertex="1" parent="1">
          <mxGeometry x="913.25" y="180" width="60" height="30" as="geometry" />
        </mxCell>
      </root>
    </mxGraphModel>
  </diagram>
</mxfile>
